<svg id="visual" viewBox="0 0 960 600" width="960" height="600" xmlns="http://www.w3.org/2000/svg" xmlns:xlink="http://www.w3.org/1999/xlink" version="1.1"><rect x="0" y="0" width="960" height="600" fill="#faf8ff"></rect><g fill="none" stroke="#8685ef" stroke-width="2"><circle r="19" cx="873" cy="361"></circle><circle r="0" cx="178" cy="27"></circle><circle r="7" cx="247" cy="88"></circle><circle r="15" cx="144" cy="303"></circle><circle r="15" cx="171" cy="556"></circle><circle r="7" cx="119" cy="270"></circle><circle r="17" cx="452" cy="146"></circle><circle r="4" cx="263" cy="382"></circle><circle r="17" cx="757" cy="281"></circle><circle r="6" cx="424" cy="459"></circle><circle r="13" cx="301" cy="112"></circle><circle r="8" cx="369" cy="295"></circle><circle r="0" cx="372" cy="94"></circle><circle r="2" cx="659" cy="445"></circle><circle r="10" cx="660" cy="387"></circle><circle r="17" cx="377" cy="350"></circle><circle r="1" cx="242" cy="182"></circle><circle r="-1" cx="436" cy="36"></circle><circle r="15" cx="678" cy="496"></circle><circle r="8" cx="3" cy="388"></circle><circle r="7" cx="374" cy="596"></circle><circle r="6" cx="47" cy="254"></circle><circle r="12" cx="935" cy="543"></circle><circle r="3" cx="705" cy="315"></circle><circle r="15" cx="726" cy="208"></circle><circle r="14" cx="692" cy="252"></circle><circle r="7" cx="333" cy="257"></circle><circle r="11" cx="593" cy="17"></circle></g></svg>